<?xml version="1.0" encoding="utf-8"?>
<!-- Generator: Adobe Adobe Illustrator 24.2.0, SVG Export Plug-In . SVG Version: 6.00 Build 0)  -->
<svg version="1.1" id="Layer_1" xmlns="http://www.w3.org/2000/svg" xmlns:xlink="http://www.w3.org/1999/xlink" x="0px" y="0px"
	 width="500px" height="500px" viewBox="0 0 500 500" style="enable-background:new 0 0 500 500;" xml:space="preserve">
<g>
	<g fill="#FFFFFF">
		<path d="M401.85,142.04c74.93,109.71,6.33,250.27-104.54,272.09C177.48,437.72,90.83,344.54,89.63,248.79
			C88.58,165.55,132,100.65,204.51,76.33C274.37,52.89,348.64,67.87,401.85,142.04z M408.37,210.44c0.53-10.71-5.61-19.4-9.29-28.67
			c-29.92-75.38-122.71-119.43-204.35-79.01C135.13,132.27,93.6,216.6,115.97,286.05c21.83,67.78,75.13,103.85,124.55,110.57
			C342.64,410.52,428.87,315.68,408.37,210.44z"/>
		<path d="M430.36,301.69c20.25-71.24,6.75-133.52-42.4-188.35c6.45-11.62,13.28-17.42,24.04-4.84
			c35.36,41.36,51.38,89.76,48.97,143.58c-2.01,44.82-16.74,85.62-46.47,120.18c-8.31,9.66-16.72,14.27-26.55-1.4
			C406.59,351.59,420.77,328.91,430.36,301.69z"/>
		<path d="M109.15,340.86c5.7,7.67,10.42,14.3,15.69,20.44c4.74,5.52,9,10.92,2.18,17.4c-8.02,7.63-13.63,1.14-18.63-4.28
			c-17.72-19.17-29.78-42.17-37.6-66.43c-22.72-70.5-10.71-135.72,34.87-194.32c4.84-6.23,9.57-17.43,20.51-8.66
			c10.11,8.11,0.64,14.22-3.85,20.2c-35.6,47.43-49.08,100.08-36.82,158.45C89.68,303.54,99.41,321.5,109.15,340.86z"/>
		<path d="M291.79,236.78c20.26,31.02,10.34,52.28-26.11,56.31c-7.36,0.81-14.86,0.45-22.3,0.33c-8.61-0.13-14.25-3.76-14.26-13.27
			c-0.02-24.35-0.07-48.69,0.01-73.04c0.01-4.05,0.4-8.2,4.09-10.94c8.16-6.07,50.71-0.8,57.89,6.85
			C301.16,213.72,300.93,224.44,291.79,236.78z M257.56,275.53c3.37-0.02,6.74-0.07,10.11-0.05c9.05,0.04,16.58-2.97,17.36-12.9
			c0.76-9.6-7.25-12.5-14.7-13.36c-8.89-1.03-20.24-5.19-24.93,6.25C242.24,263.17,240.94,273.47,257.56,275.53z M266.63,209.08
			c-2.02-0.06-4.05-0.19-6.07-0.16c-7.66,0.12-15.45,0.14-16.18,10.68c-0.44,6.3,1.94,10.91,8.79,10.96
			c9.11,0.06,20.14,3.84,25.64-6.61C282.91,216.18,276.95,211.65,266.63,209.08z"/>
		<path d="M345.73,208.36c-7.94,1.21-13.09,3.76-14.63,11.56c3.85,9.51,13.11,9.42,21.49,11.11c17.54,3.53,33.48,10.88,35.89,30.33
			c2,16.16-9.89,25.83-24.1,31.11c-15.84,5.89-38.67-1.16-47.39-14.5c-3.51-5.37-8.67-12.79-2.39-18.23
			c7.67-6.65,11.48,1.65,15.42,6.93c6.66,8.92,15.76,12.76,26.52,10.68c6.75-1.3,12.86-5.03,13.98-12.87
			c1.16-8.16-5.27-9.99-11.07-11.98c-6.99-2.4-13.97-4.86-21.07-6.88c-14.29-4.05-24.54-11.59-23.87-28
			c0.68-16.72,12.32-23.19,26.61-25.34c15.35-2.3,29.65,0.56,40.17,13.53c3.56,4.39,6.73,9.48,1.58,14.2
			c-4.14,3.8-9.1,1.92-12.42-2.13C364.35,210.46,356.71,207.3,345.73,208.36z"/>
		<path d="M155.13,226.66c7.44-11.4,4.75-29.98,20.11-31.3c18.87-1.62,16.41,18.26,21.73,29.28c8.43,17.46,14.89,35.87,22.02,53.94
			c1.98,5.01,4.46,10.86-3.05,13.44c-6.45,2.22-9.34-2.29-12.27-7.42c-15.94-27.96-35.83-28.4-51.45-1.33
			c-3.57,6.18-7.67,12.48-15.61,8.04c-6.84-3.82-1.48-9.1,0.32-13.93C143.03,261.05,148.77,244.59,155.13,226.66z M179.89,226.14
			c-14.55-0.71-12.01,11.23-12.21,18.8c-0.19,7.09,8.08,7.45,12.63,5.57C195.63,244.19,183.96,235.94,179.89,226.14z"/>
	</g>
</g>
</svg>
