<?xml version="1.0" encoding="utf-8"?>
<!-- Generator: Adobe Adobe Illustrator 24.2.0, SVG Export Plug-In . SVG Version: 6.00 Build 0)  -->
<svg version="1.1" id="Layer_2" xmlns="http://www.w3.org/2000/svg" xmlns:xlink="http://www.w3.org/1999/xlink" x="0px" y="0px"
	 width="500px" height="500px" viewBox="0 0 500 500" style="enable-background:new 0 0 500 500;" xml:space="preserve">
<g>
	<g fill="#FFFFFF">
		<path d="M261.18,254c-56.05,20.42-98.33-23.17-95.56-70.55c1.3-22.32,22.82-52.31,43.03-59.13c28.19-9.52,55.03-2.72,73.5,17.23
			C314.18,176.15,304.72,231.69,261.18,254z"/>
		<path d="M146.2,375.92c1.31-17.41,12.28-29.58,19.11-43.52c7.43-15.17,16.22-29.68,24.75-44.29c5.39-9.23,13.35-14.05,24.52-12.26
			c12.69,2.03,24.56,6.85,36.5,11.19c6.76,2.46,9.69,9.35,12.12,15.76c4.5,11.87,10.41,23.39,11.95,37.79
			c-15.52-4.75-29.16-8.69-42.63-13.15c-7.91-2.62-13.54-2.05-17.87,6.34c-8.15,15.8-17.06,31.21-25.86,46.66
			c-4.01,7.03-8.07,13.91-17.65,14.91C155.55,396.98,152.67,395.1,146.2,375.92z"/>
		<path d="M348.23,294.07c-5.53,14.84-12.24,28.04-19.17,40.86c-6.14,1.26-8.61-2.68-9.34-6.85c-2.77-15.81-12.82-28.63-17.13-43.91
			c-4.87-17.26,6.88-51.81,22.11-61.7c10.65-6.92,20.44-5.08,29.52,1.89c9.34,7.18,15.69,17.25,10.99,28.94
			C359.84,266.64,357.18,281.18,348.23,294.07z"/>
		<path d="M321.98,351.53c3.09,6.72,6.34,12.36,8.23,18.42c2.87,9.18,0.96,17.32-9,20.93c-10.06,3.65-14.2-2.44-17.94-10.97
			c-11.58-26.4-20.47-53.94-34-79.51c-1.76-3.33-2.89-7.19-3.43-10.94c-1.19-8.34,0.7-16.04,9.85-18.23
			c8.13-1.94,13.93,2.78,17.06,10.2C302.45,304.47,311.96,327.57,321.98,351.53z"/>
	</g>
</g>
</svg>
