<?xml version="1.0" encoding="utf-8"?>
<!-- Generator: Adobe Adobe Illustrator 24.2.0, SVG Export Plug-In . SVG Version: 6.00 Build 0)  -->
<svg version="1.1" id="Layer_2" xmlns="http://www.w3.org/2000/svg" xmlns:xlink="http://www.w3.org/1999/xlink" x="0px" y="0px"
	 width="500px" height="500px" viewBox="0 0 500 500" style="enable-background:new 0 0 500 500;" xml:space="preserve">
<g>
	<g fill="#FFFFFF">
		<path d="M176.71,131.04c33.33,5.2,65.87,1.75,98.31,2.78c10.09,0.32,20.21,0.06,30.31,0.08c25.42,0.05,25.57,0.08,30.54-24.19
			c1.36-6.62,4.88-9.9,11.33-10.08c15.69-0.44,31.38-0.92,47.08-0.96c12-0.04,19.53,4.97,17.72,18.4
			c-1.85,13.72,4.69,17.11,17.49,17.12c39.99,0.04,40.01,0.47,40,40.13c-0.01,62.87-0.47,125.74,0.22,188.61
			c0.18,16.2-5.37,22.62-21.42,21.32c-80.7-6.55-161.48,2.27-242.27-1.39c-48.08-2.18-96.38-0.02-144.57,0.89
			c-12.85,0.24-18.87-4.04-18.82-17.12c0.23-71.85,0.43-143.7,0.22-215.55c-0.04-13.15,5.33-18.57,18.16-17.48
			c4.46,0.38,8.98,0.19,13.47,0.22c23.35,0.17,23.75,0.19,25.1-22.89c0.56-9.59,4.27-12.72,13.57-12.05
			c13.42,0.96,26.94,1.75,40.36,1.19c15.19-0.64,22.33,4.6,19.8,20.57C172.84,123.58,174.88,126.94,176.71,131.04z M78.5,333.75
			c0.02,15.05,10.89,12.59,20.34,12.75c104.95,1.75,209.89-5.64,314.83-0.11c12.97,0.68,20.05-3.4,19.93-17.9
			c-0.4-47.75-0.4-95.51,0.04-143.25c0.11-11.97-4.75-15.93-16.07-15.5c-24.13,0.92-48.31,2.41-72.41,1.59
			c-82.57-2.8-165.14-0.23-247.7-1.6c-14.82-0.25-19.51,4.7-19.28,19.4C78.93,236.31,78.46,283.51,78.5,333.75z"/>
		<path d="M367.06,207.71c12.6-1.32,17.03,4.97,15.77,14.95c-1.48,11.65,2.03,16.98,14.31,15.72c7.42-0.76,13.41,1.37,14.02,10.41
			c0.57,8.39-3.71,13.04-11.6,13.28c-12.56,0.38-18.63,5.91-17.67,18.73c0.58,7.76-3.3,11.31-11.02,11.16
			c-7.53-0.15-14.06-2.25-13.6-11.04c0.73-13.91-5.7-18.89-18.89-18.75c-8.01,0.08-9.54-6.04-9.32-13.02
			c0.21-6.62,2.55-11.31,9.75-10.58c14.02,1.41,19.22-4.71,18.23-18.37C356.62,214.59,358.63,208.92,367.06,207.71z"/>
		<path d="M160.76,262.88c-15.57-0.03-29.55,0.03-43.52-0.11c-8.45-0.09-17.14,0.73-17.51-12.12c-0.38-13.02,8.04-12.41,16.69-12.39
			c15.09,0.02,30.22-0.6,45.26,0.21c8.16,0.44,21-5.26,21.02,11.01C182.71,263.74,171.89,262.56,160.76,262.88z"/>
	</g>
</g>
</svg>
