<?xml version="1.0" encoding="utf-8"?>
<!-- Generator: Adobe Adobe Illustrator 24.2.0, SVG Export Plug-In . SVG Version: 6.00 Build 0)  -->
<svg version="1.1" id="Layer_2" xmlns="http://www.w3.org/2000/svg" xmlns:xlink="http://www.w3.org/1999/xlink" x="0px" y="0px"
	 width="500px" height="500px" viewBox="0 0 500 500" style="enable-background:new 0 0 500 500;" xml:space="preserve">
<g>
	<g fill="#FFFFFF">
		<path d="M333.7,380.09c-25.12,12.32-52.31,2.73-64.03-23.82c-22.63-51.25-20.08-101.73,8.5-150.3c4.79-8.14,2.44-12.13-5.49-15.73
			c-15.94-7.24-31.54-5.44-47.27,0.29c-7.7,2.8-8.79,8.49-4.33,14.05c13.6,16.97,19.17,37.39,21.81,57.75
			c4.12,31.82,5.33,64.58-12.84,93.26c-16.94,26.74-42.76,45.59-73.03,17.93c-13.8-12.61-22.61-28.8-26.74-46.91
			c-6.21-27.27-3.52-53.99,6.1-80.42c6.15-16.92,14.58-32.47,24.76-49.04c-13.4-9.08-27.27-11.91-42.44-9.05
			c-5.34,1.01-12.18,4.62-15.31-0.87c-4.1-7.17-10.1-14.5-9.49-23.25c0.49-6.92,7.87-7.46,13.07-7.92
			c23.5-2.05,47.17-3.27,68.62,9.1c9.67,5.58,17.83,4.54,27.44-0.18c30.93-15.16,62.49-14.82,93.46-0.26
			c10.17,4.78,19.15,6,28.84,0.18c21.11-12.67,44.37-10.75,67.29-8.98c13.91,1.07,15.38,5.84,10.73,18.33
			c-4.7,12.65-10.56,18.26-25.26,13.74c-12.95-3.98-25.8,1.2-38.37,7.13c2.62,9.83,8.52,16.68,12.42,24.48
			c16.79,33.53,26.13,68.47,17.92,106.03C365.22,347.89,353.54,366.31,333.7,380.09z M290.48,318.05c1.12,4.55,2.41,9.07,3.32,13.66
			c2.16,10.95,7.32,20.46,19.25,20.43c10.92-0.03,15.75-9.57,19.99-18.91c13.69-30.15,6.7-59.51-3.83-88.22
			c-3.73-10.16-8.02-21.43-19.74-29.38C287.64,246.86,284.54,280.45,290.48,318.05z M167,333.75c3.41,10,10.15,18.4,20.51,18.02
			c10.62-0.39,15.61-9.86,18.72-19.94c7.32-23.74,8.16-47.77,3.1-71.8c-2.59-12.3-5.09-25-12.87-35.63
			c-4.78-6.53-10.49-8.83-14.79-0.62C163.79,257.9,150.69,292.93,167,333.75z"/>
	</g>
</g>
</svg>
