<?xml version="1.0" encoding="utf-8"?>
<!-- Generator: Adobe Adobe Illustrator 24.2.0, SVG Export Plug-In . SVG Version: 6.00 Build 0)  -->
<svg version="1.1" id="Layer_2" xmlns="http://www.w3.org/2000/svg" xmlns:xlink="http://www.w3.org/1999/xlink" x="0px" y="0px"
	 width="500px" height="500px" viewBox="0 0 500 500" style="enable-background:new 0 0 500 500;" xml:space="preserve">
<g>
	<g fill="#FFFFFF">
		<path d="M72.09,283.69c-0.33-4.16,0.22-7.55-4.95-8.67c-5.86,9.6-1.93,20.4-2.84,30.54c-0.59,6.56,0.47,13.3-0.47,19.78
			c-1.06,7.32-4.43,14.47-13.21,13.97c-8.61-0.48-11.68-7.29-11.78-15.15c-0.22-16.27-0.4-32.54-0.13-48.81
			c0.15-8.94-0.85-17.29-7.14-24.14c-4.47-4.87-5.3-10.66-5.25-16.96c0.14-16.27,0.7-32.58-0.22-48.8
			c-0.69-12.23,3.22-21.38,12.04-29.58c4.84-4.49,9.35-7.96,16-6.02c6.95,2.03,9.02,8.56,9.51,14.34
			c0.99,11.61,0.29,23.35,0.67,35.03c0.19,5.79-1.78,12.21,4.29,17.95c6.39-8.96,3.23-18.64,3.35-27.51
			c0.43-33.52,6.18-40.51,39-42.2c11.79-0.61,20.64-1.83,25.7-15.14c4.01-10.53,14.7-14.02,26.58-13.9
			c9.93,0.1,20.77,3.03,31.47-4.01c-8.11-10.16-17.81-6.05-26.11-7.03c-6.91-0.82-14.59,0.86-19.67-5.49
			c-3.72-4.65-3.95-10.03-1.75-15.84c2.82-7.46,8.62-9.72,15.57-9.81c18.79-0.24,37.59-0.18,56.39-0.18
			c26.42,0,52.84-0.14,79.26,0.18c8.57,0.1,17.93,0.1,20.25,11.63c1.93,9.63,1.01,17.45-11.42,18.1c-8.1,0.42-16.2,0.99-24.29,1.62
			c-3.96,0.31-9.1-0.06-9.25,5.52c-0.15,5.81,5,5.4,8.98,5.49c7.62,0.16,15.24-0.06,22.86,0.14c16.53,0.43,27.42,10.72,27.8,27.38
			c0.22,9.54,2.16,15.06,13.39,15.59c28.79,1.36,35.74,1.85,38.07,41.38c0.24,4.06,0.1,8.14,0.37,12.19c0.09,1.4,0.91,2.75,1.4,4.13
			c4.78,0.82,5.35-2.76,5.56-5.53c1.24-16.74,13.13-21.92,26.84-24.19c18.21-3.02,34.07,3.34,39.94,17.17
			c11.57,27.27,11.94,56.34,10.4,85.29c-0.72,13.63-2.91,27.32-5.84,40.67c-4.73,21.5-16.92,31.37-36.84,31.63
			c-18.4,0.24-30.69-9.83-36.64-31.11c-6.48,5.38-4.79,12.21-4.95,18.21c-0.81,29.6-11.72,40.65-40.73,40.69
			c-43.19,0.06-86.38-0.55-129.55,0.27c-18.44,0.35-32.21-7.21-44.47-19.46c-6.11-6.1-12.1-12.33-17.88-18.75
			c-9.12-10.13-20.2-14.81-33.91-13.77c-7.07,0.53-14.23,0.42-21.33,0.06c-15.28-0.77-24.23-9.71-24.91-25.16
			C71.8,305.28,72.13,295.09,72.09,283.69z M230.53,360.09c35.57,0.01,71.14-0.29,106.7,0.2c11.78,0.16,16.9-4.07,16.21-15.96
			c-0.44-7.59-0.39-15.3,0.43-22.85c2.39-22.15,9.97-28.47,33.08-28.49c24.39-0.02,32.23,6.26,34.99,28.24
			c0.45,3.55,0.18,7.22,4.2,9.33c5.76,0.57,8.65-3.21,8.61-8.09c-0.29-30.38,7.47-60.7,0.64-91.12c-0.9-4.03-0.98-8.87-6.2-9.11
			c-6.16-0.28-6.19,5.03-7.46,9.52c-6.14,21.69-20.83,29.49-48.76,26.32c-12.51-1.42-19.19-13.32-19.48-34.84
			c-0.06-4.58-0.37-9.19,0.07-13.72c1.15-11.96-4.03-15.87-15.9-15.87c-23.94-0.01-30.08-5.75-33.75-29.48
			c-1.39-9.01-5.08-13.48-14.74-13.4c-37.6,0.28-75.2,0.08-112.8,0.16c-5,0.01-11.2-0.62-13.08,5.39
			c-6.85,21.81-23.47,24.41-42.51,22.33c-12.85-1.4-16.91,4.4-16.68,16.75c0.58,31.52,0.94,63.07-0.02,94.57
			c-0.46,14.92,4.7,19.48,19.2,18.92c18.11-0.7,33.7,4.41,46.92,19.5C184.94,345.24,199.42,366.09,230.53,360.09z"/>
	</g>
</g>
</svg>
