<?xml version="1.0" encoding="utf-8"?>
<!-- Generator: Adobe Adobe Illustrator 24.2.0, SVG Export Plug-In . SVG Version: 6.00 Build 0)  -->
<svg version="1.1" id="Layer_1" xmlns="http://www.w3.org/2000/svg" xmlns:xlink="http://www.w3.org/1999/xlink" x="0px" y="0px"
	 width="500px" height="500px" viewBox="0 0 500 500" style="enable-background:new 0 0 500 500;" xml:space="preserve">
<g>
	<g fill="#FFFFFF">
		<path d="M134.94,376c-77-82.48-72.9-195,10.43-266.61c72.65-62.44,206.45-46.17,257.86,51.13
			c38.91,73.63,20.86,161.83-29.5,211.42c-62.62,61.66-152.59,68.64-223.04,15.92C145.81,384.21,140.9,380.61,134.94,376z
			 M104.79,217.88c-18.92,69.86,32.81,170.48,131.37,183.31c65.38,8.51,147.86-37.29,163.3-120.4
			c18.03-97.03-37.58-168.31-115.88-185.87C198.62,75.86,123.37,131.32,104.79,217.88z"/>
		<path d="M450.64,212.23c8.27,62.26-4.96,117.14-43.6,165.09c-5.38,6.67-10.65,15.91-21.04,6.78c-9.67-8.5-0.95-14.31,3.79-20.29
			c56.49-71.22,56.7-160.45-0.04-233.03c-8.86-11.33-10.27-19.76,4.74-27.79C424.88,133.08,442.26,169.27,450.64,212.23z"/>
		<path d="M69.55,330.67c-33.25-83.62-14.19-181.88,43.44-226.36c10.76,6.73,12.23,14.6,3.78,24.62
			c-31.99,37.93-45.04,81.86-42.59,131.18c1.95,39.29,17.87,72.77,40.55,103.67c4.78,6.52,13.15,12.23,4.24,20.28
			c-10.35,9.36-15.8-1.73-20.9-7.59C86.53,363.21,78.06,347.78,69.55,330.67z"/>
		<path d="M284.38,251.73c8.32,20.75,1.37,37.82-16.17,43.54c-22.64,7.38-48.23-1.64-54.01-19.03c-1.5-4.51-3.82-9.63,1.44-12.75
			c5.71-3.39,10.21-0.74,13.26,4.89c1.59,2.93,3.07,6.29,5.52,8.34c8.81,7.35,19.08,5.53,28.86,2.83c4.64-1.28,8.32-5.86,7.63-10.88
			c-1.47-10.7-11.41-12.48-19.29-15.59c-6.83-2.7-14.69-2.91-21.39-5.83c-16.53-7.19-21.35-29.65-8.86-42.35
			c11.86-12.06,27.43-10.12,42.09-7.51c13.66,2.43,20.04,12.17,21.2,25.42c-7.64,6.22-12.74,3.79-17.69-2.5
			c-4.92-6.25-12.05-9.04-19.74-7.96c-5.93,0.83-12.28,2.98-13.51,10.32c-1.41,8.36,5.23,10.6,11.04,11.78
			C258.76,237.28,272.5,240.28,284.38,251.73z"/>
		<path d="M149.09,219.55c-3.88,15.54,4.76,16.57,15.54,17.39c10.38,0.79,22.94-5.28,31.1,7.11c-5.77,11.22-15.7,6.22-23.66,7.4
			c-10.32,1.53-24.84-4.81-25.07,14.42c-0.24,20.5,15.17,13.91,26.12,15.57c9.81,1.48,21.8-5.09,30.32,8.81
			c-13.47,10.67-28.71,5.34-42.49,5.68c-31.5,0.77-31.53,0.19-31.59-30.34c-0.03-17.59,0.26-35.19-0.03-52.78
			c-0.18-10.7,3.69-16.65,15.21-16.43c13.53,0.25,27.08-0.12,40.61,0.06c6.16,0.08,13.19,0.47,13.41,8.8
			c0.23,8.46-6.79,8.5-12.95,9.29C173.73,216.04,161.22,211.33,149.09,219.55z"/>
		<path d="M303.61,291.63c-4.8-27.72-2.48-54.1-2.7-80.42c-0.03-3.75,1.25-9.91,3.61-10.9c17.51-7.31,35.56-5.45,53.24-0.34
			c12.73,3.68,17.72,13.45,18.01,26.16c0.4,17.84-11.34,31.97-31.53,32.35c-18.19,0.34-28.26,4.17-25.97,24.77
			C319.23,291.86,315.22,298.19,303.61,291.63z M347.6,215.62c-9.85,0.67-22.69-7.4-27.87,7.29c-2.2,6.24-4.29,16.28,4.38,19.82
			c10.42,4.26,21.13,2.66,29.78-6.21C362.19,228.02,357.91,222.24,347.6,215.62z"/>
	</g>
</g>
</svg>
