<?xml version="1.0" encoding="utf-8"?>
<!-- Generator: Adobe Adobe Illustrator 24.2.0, SVG Export Plug-In . SVG Version: 6.00 Build 0)  -->
<svg version="1.1" id="Layer_1" xmlns="http://www.w3.org/2000/svg" xmlns:xlink="http://www.w3.org/1999/xlink" x="0px" y="0px"
	 width="500px" height="500px" viewBox="0 0 500 500" style="enable-background:new 0 0 500 500;" xml:space="preserve">
<g>
	<g fill="#FFFFFF">
		<path d="M362.35,358.59c-39.82,17.52-79.92,24.32-119.66,9.72c-30.68-11.27-40.73-41.04-48.96-70.31
			c-10.89-38.72-10.18-77.11-0.01-115.96c5.06-19.34,12.66-36.94,25.04-52.4c7.24-9.03,15.66-17.37,27.62-19.46
			c81.2-14.23,174.81,13.94,202.77,103.18c13.37,42.69-3.45,81.29-34.36,112.71C400.51,340.57,383.68,351.96,362.35,358.59z
			 M418.63,262.04c10.27-26.87,2.19-50.52-13.67-72.23c-29.4-40.25-72.26-53.25-119.01-53.66c-39.85-0.35-52.71,11.08-62.18,49.24
			c-8.9,35.88-9.16,72.43,0,108.23c10.95,42.76,21.27,49.8,64.87,49.68c6.09-0.02,12.19,0.07,18.27-0.22
			C356.64,340.73,405.53,306.26,418.63,262.04z"/>
		<path d="M103.31,195.66c-9.3-12.95-19.62-3.05-29.29-2.19c-10.09,0.9-20.03,3.02-21.59-10.64c-1.51-13.21,9.57-12.65,17.97-13.7
			c10.62-1.32,21.78,0.05,31.27-7.35c2.28-13.64-6.87-23.98-11.61-37.08c15.94-6.97,28.04-6.37,36.37,11.02
			c5.66,11.81,7.57,28.48,28.24,24.13c4.91-1.03,6.39,6.05,7.21,10.73c0.9,5.12-0.24,11.01-5.76,11.21
			c-30.22,1.1-19.57,27.81-29.98,41.77c8.53,4.27,14.29,1.25,20.02-0.09c8.42-1.97,12.58,1.44,14.65,9.46
			c2.45,9.46-3.66,11.85-10.5,13.9c-1.93,0.58-3.97,0.83-5.98,1.13c-29.1,4.29-31.08,6.67-31.97,39.63
			c10.11,1.87,19.72-1.22,29.38-3.46c10.04-2.34,17.69-0.42,19.34,11.28c1.53,10.94-7,11.66-14.23,12.97
			c-37.26,6.75-37.26,6.67-24.93,43.15c0.36,1.07-0.49,2.55-0.8,3.83c-25.39,5.35-30.57,3.04-36.8-20.31
			c-2.97-11.13-6.51-18.94-19.79-17.84c-7.31,0.6-11.25-3.67-12.07-10.79c-0.75-6.49,2.23-11,8.66-11.27
			c26.16-1.08,21.55-20.2,23.09-37.6c-7.71-0.5-14.33-0.94-20.95-1.36c-7.55-0.47-10.76-4.92-10.73-12.01
			c0.03-6.69,4.27-9.45,10.31-10.25c0.67-0.09,1.37-0.28,2.02-0.17C94.27,238.87,100.52,219.82,103.31,195.66z"/>
	</g>
</g>
</svg>
