<?xml version="1.0" encoding="utf-8"?>
<!-- Generator: Adobe Adobe Illustrator 24.2.0, SVG Export Plug-In . SVG Version: 6.00 Build 0)  -->
<svg version="1.1" id="Layer_1" xmlns="http://www.w3.org/2000/svg" xmlns:xlink="http://www.w3.org/1999/xlink" x="0px" y="0px"
	 width="500px" height="500px" viewBox="0 0 500 500" style="enable-background:new 0 0 500 500;" xml:space="preserve">
<g>
	<g fill="#FFFFFF">
		<path d="M96.63,142.54c35.26-22.89,71.79-37.58,113-37.8c47.81-0.25,74.19,15.76,89.29,60.63c18.9,56.15,18.79,112.97-7.8,167.34
			c-10.33,21.12-26.2,37.51-51.66,40.78c-57.98,7.45-110.28-6.29-154-45.2C27.59,276.8,32.59,196.62,96.63,142.54z M151.31,146.48
			c-4.97,2.09-10.2,3.71-14.86,6.34c-63.72,35.97-89.35,102.74-24.16,158.81c31.97,27.5,70.57,34.14,111.68,32.8
			c20.06-0.65,33.34-8.74,41.24-26.67c20.02-45.44,17.15-92.56,6.7-138.96c-5.33-23.69-19.23-42.02-49.71-41.14
			C199.15,138.32,176.57,139.48,151.31,146.48z"/>
		<path d="M363.32,153.06c15.64-34.39,15.64-34.39,42.59-29.39c0.16,13.44-12.4,23.73-10.24,39.24c12.68,2.49,25.72,4.83,38.65,7.7
			c6.17,1.37,11.89,4.14,10.89,12.13c-0.97,7.69-6.56,9.74-13.22,9.53c-11.98-0.38-23.96-1.07-35.94-1.64
			c0.03,35.78,4.12,40.86,34.81,43.76c7.68,0.73,16.03,0.73,14.47,11.84c-1.32,9.41-8.3,11.5-16.64,10.42
			c-4.61-0.6-9.18-1.54-16.57-2.81c4.83,17.98-5.17,41.25,25.52,42.41c6.55,0.25,8.89,5.67,8.1,11.81
			c-0.73,5.76-3.23,10.66-9.96,10.74c-5.27,0.06-10.54-0.76-15.5-1.17c-19.98,45.9-19.98,45.9-46.14,37.01
			c1.27-3.03,2.27-6.12,3.79-8.93c15.77-29.09,13.27-33.74-19.28-35.72c-4.04-0.25-8.13-0.54-12.08-1.37
			c-7.83-1.66-11.6-6.66-10.4-14.7c1.3-8.69,7.1-10.4,14.89-9.46c9.37,1.12,18.79,1.86,28.21,2.41c1.76,0.1,3.61-1.42,5.31-2.15
			c-1.29-31.68-2.24-32.61-27.84-35.69c-9-1.08-21.21-0.61-20.21-14.29c1.12-15.24,12.73-9.72,21.72-8.82
			c3.15,0.32,6.42-0.57,13.21-1.27c-10.78-15.79,0.24-40.77-28.03-44.08c-5.36-0.63-7.7-5.36-7.1-10.7
			c0.71-6.28,4.2-9.76,10.91-9.22C353.46,161.14,359.68,161.66,363.32,153.06z"/>
	</g>
</g>
</svg>
