<?xml version="1.0" encoding="utf-8"?>
<!-- Generator: Adobe Adobe Illustrator 24.2.0, SVG Export Plug-In . SVG Version: 6.00 Build 0)  -->
<svg version="1.1" id="Layer_2" xmlns="http://www.w3.org/2000/svg" xmlns:xlink="http://www.w3.org/1999/xlink" x="0px" y="0px"
	 width="500px" height="500px" viewBox="0 0 500 500" style="enable-background:new 0 0 500 500;" xml:space="preserve">
<g>
	<g fill="#FFFFFF">
		<path d="M316.2,247c-12.07,19.58-6.4,35.03,3.5,52.6c12.59,22.36,24.28,46.82,8.88,73.37c-6.42,11.07-14.57,19.7-29,18.64
			c-14.71-1.08-20.31-11.19-24.97-23.32c-8.68-22.61-9.73-45.19,0.06-67.39c8.96-20.32,3.32-34.29-16.09-44.1
			c-8.45,4.75-4.89,12.84-4.99,19.29c-0.41,24.52-0.54,49.07,0.14,73.58c0.43,15.58-5.03,31.88,13.05,44.44
			c8.06,5.6,4.62,21.98,1.51,33.04c-3.23,11.46-14.19,7.78-22.2,7.82c-57.71,0.29-115.43,0.27-173.14-0.01
			c-8.23-0.04-19.86,3.77-23.64-5.43c-4.86-11.83-7.35-28.32,1.15-37.24c10.43-10.95,9.24-21.89,9.27-33.68
			c0.19-85.85,0.03-171.7,0.13-257.55c0.04-32.73,12.69-45.38,45.64-45.63c33.91-0.25,67.82-0.28,101.72-0.08
			c32.45,0.19,45.45,12.92,46.12,45.79c0.53,25.91,0.11,51.84,0.11,78.1c24.99,6.81,43.27,23.15,62.83,37.23
			C328.7,225.4,320.24,235.76,316.2,247z M107.86,167.85c23.35,10.34,47.91,3.73,71.87,4.69c29.04,1.17,31.71-3.19,31.44-31.56
			c-0.2-20.94-8.75-30.49-30.14-28.24c-9.24,0.97-18.66,0.03-27.99,0.32C103.39,114.62,103.43,103.66,107.86,167.85z M313.74,348.32
			c-3.01-16.71-3.06-34.63-19.83-49.45c-2.22,18.9-4.29,34.33-2.32,50.03c0.95,7.62-0.46,17.85,9.65,19.19
			C312.6,369.59,311.13,358.36,313.74,348.32z M276.2,241.7c5.41,3.9,7.94,16.61,17.88,6.8c4.84-4.78,6.72-12.41,0.02-16.83
			c-12.04-7.96-20.78-21.5-37.11-23.92C247.52,227.53,266.62,230.41,276.2,241.7z"/>
		<path d="M417.7,199.9c-11.18-4.82-16.74-11.9-15.6-22.49c2.63-24.46,15.75-42.79,34.84-58.67c6.2,22.59,15.58,43.75,9.74,66.54
			C443.3,198.48,432.13,201.88,417.7,199.9z"/>
		<path d="M471.98,189.97c9.46,18.64,8.06,37.78,8.91,56.08c0.68,14.63-10.01,24.14-25.4,23.06c-15.08-1.05-21.54-11.79-19.23-25.78
			C440.02,220.6,447.55,199.49,471.98,189.97z"/>
		<path d="M382.91,148.84c4.24,17.89,5.76,34.23,4.08,50.71c-1.56,15.32-10.46,23.47-25.94,21.88
			c-13.93-1.43-21.34-15.73-17.37-30.87c4.46-17.03,14.52-31.04,24.36-45.09C373.12,138.22,379.04,135.16,382.91,148.84z
			 M357.95,190.1c-0.59,7.5,1.35,13.59,10.25,10.04c6.57-2.62,9.37-9.23,4.67-15.53C367.12,176.87,362.35,180.74,357.95,190.1z"/>
	</g>
</g>
</svg>
