<?xml version="1.0" encoding="utf-8"?>
<!-- Generator: Adobe Adobe Illustrator 24.2.0, SVG Export Plug-In . SVG Version: 6.00 Build 0)  -->
<svg version="1.1" id="Layer_1" xmlns="http://www.w3.org/2000/svg" xmlns:xlink="http://www.w3.org/1999/xlink" x="0px" y="0px"
	 width="500px" height="500px" viewBox="0 0 500 500" style="enable-background:new 0 0 500 500;" xml:space="preserve">
<g>
	<g fill="#FFFFFF">
		<path d="M121.24,125.53c41.81-44.59,92.93-62.7,150.97-54.63c63.31,8.8,109.41,44.58,134.1,103.94
			c36.33,87.36,4.42,180.29-78.31,226.13c-78.99,43.76-171.64,16.75-222.16-58.36C61.1,276.1,67.61,187.44,121.24,125.53z
			 M216.28,396.32c24.2,5.15,48.44,5.51,72.12-1.95c78.4-24.71,120.39-99.05,108.19-178.44C382.66,125.3,274.8,55.56,180.02,106.73
			c-72.91,39.36-99.29,125-68.52,200.43C130.39,353.5,165.85,381.36,216.28,396.32z"/>
		<path d="M114.81,382.58c-11.82,8.12-15.35-2.49-20.02-7.81c-50.28-57.35-60.94-155.38-24.82-222.48
			c7.69-14.28,15.01-28.7,26.51-40.46c4.64-4.75,8.63-11.67,16.65-5.67c8.43,6.3,4.63,13.27-0.14,19.34
			c-17.72,22.58-29.68,47.37-37.68,75.33c-16.97,59.35,0.15,110.11,33.65,157.98C113.83,365.73,122.61,371.27,114.81,382.58z"/>
		<path d="M380.69,120.52c-3.03-7.96-1.5-13.38,5.46-16.01c6.6-2.5,9.47,3.21,13.26,6.86c21.03,20.3,34.93,46.33,40.92,73.24
			c15.48,69.61,10.75,136.88-40.83,193.25c-4.4,4.81-8.09,12.52-16.13,5.85c-7.58-6.29-4.3-12.64,0.64-19.34
			C444.55,282.23,443.61,200.46,380.69,120.52z"/>
		<path d="M264.51,178.92c-2.56,37.43,1.75,73.44-4.03,109.1c-1.37,8.43-2.26,16.6-13.99,15.47c-11.11-1.07-9.14-9.66-9.88-16.78
			c-4.7-45.19-4.12-90.54-4.14-135.87c0-10.88,0.16-19.81,15.48-19.97c15.18-0.16,18.81,7.33,18.11,20.06
			C265.57,159.7,265.02,168.48,264.51,178.92z"/>
		<path d="M259.57,358.18c-13.6,1.94-26.91,5.37-27.02-14.11c-0.06-11.04-1.18-21.57,15.48-21.72c16.8-0.15,18.28,9.8,17.76,22.27
			C265.59,349.34,264.95,353.99,259.57,358.18z"/>
	</g>
</g>
</svg>
