<svg xmlns="http://www.w3.org/2000/svg" viewBox="0 0 500 500" width="100%" height="100%">
	<g fill="#FFFFFF">

			<path d="M337.62,346.84c-14.16,2-26.64,4.41-39.55,3.91c-47.05-1.82-55.97-12.41-68.09-49.93
				c-12.09-37.43-11.27-77.52,2.97-116.16c9.76-26.46,27.92-39.98,55.33-42.76c44.8-4.55,116.62,19.45,137.89,69.45
				c13.18,31,9.1,66.92-14.25,93.28C392.34,326.75,368.04,340.64,337.62,346.84z M408.06,259.87c6.51-30.9-8-52.47-31.09-70.31
				c-25.02-19.33-53.81-22.21-84.34-22.27c-20.96-0.04-30.4,9.63-37.56,27.1c-11.35,27.71-9.66,56.67-5.52,84.43
				c2.72,18.2,6.89,41.61,31.64,46.54C322.71,333.63,391.25,315.83,408.06,259.87z"/>
			<path d="M140.99,311.8c16.34,0.05,30.87,0,45.39,0.18c6.31,0.08,12.95,0.98,12.86,9.23c-0.07,6.48-5.31,9.72-11.13,9.76
				c-36.9,0.2-73.8,0.2-110.7-0.21c-6.27-0.07-12.58-3.44-12.06-10.89c0.56-8.16,7.89-7.94,13.9-7.98
				C99.23,311.73,119.2,311.81,140.99,311.8z"/>
			<path d="M126.42,280.32c-17.62-0.3-33.43-0.3-49.21-1.07c-5.22-0.25-11.95-1.27-11.78-8.62c0.15-6.23,6.29-7.47,10.89-7.51
				c37.06-0.31,74.13-0.34,111.18,0c5.06,0.05,12.11,0.87,11.5,8.61c-0.55,7.02-7,7.97-12.41,8.09
				C167.15,280.24,147.69,280.19,126.42,280.32z"/>
			<path d="M70.98,228.16c-9.15-7.88-6.1-14.03,2.5-14.22c38.92-0.84,77.86-0.47,116.79-0.39c4.56,0.01,8.57,1.91,8.65,7.3
				c0.08,5.12-3.58,7.72-8.05,8.35c-5.39,0.76-10.91,0.89-16.37,0.83C140.47,229.72,106.42,229.28,70.98,228.16z"/>
			<path d="M97.48,179.15c-7.86-0.05-13.94,0.09-20.01-0.21c-5.39-0.27-12.2-0.04-11.74-7.84c0.39-6.66,6.51-8.47,12.14-8.51
				c36.47-0.2,72.94-0.19,109.42-0.08c5.84,0.02,11.46,2,11.5,8.94c0.05,7.9-6.68,7.53-11.99,7.56
				C157.62,179.19,128.44,179.13,97.48,179.15z"/>
		</g>
</svg>
