<svg xmlns="http://www.w3.org/2000/svg" viewBox="0 0 500 500" width="100%" height="100%">
    <g fill="#FFFFFF">
       <path d="M319.82,333.12c-19.03,5.96-36.97,7.71-55.41,7.35c-30.96-0.6-47.61-10.59-53.97-40.52
          c-12.37-58.14-11.4-115.77,15.97-170.55c6.17-12.35,16.04-20.06,29.68-21.29c46.39-4.19,89.33,6.14,127.48,33.22
          c69,48.99,60.3,128.12-10.13,170.68C357.4,321.72,340.13,329.54,319.82,333.12z M247.94,149.51
          c-16.4,43.58-19.55,88.2-11.32,133.94c3.68,20.48,14.98,33.55,33,31.75c22.69-2.26,46.2-1.75,67.15-13.61
          c17.26-9.78,34.69-18,48.46-34.05c25.22-29.4,21.94-70.95-10.61-100.15c-26.13-23.44-58.31-30.3-91.48-36.07
          C266.9,128.5,255.8,131.71,247.94,149.51z"/>
       <path d="M65.92,276.95c28.92-15.26,56.97-29.38,85.09-43.36c3.23-1.61,6.82-2.52,10.29-3.59c7.93-2.44,14.91-1.07,18.12,7.17
          c2.86,7.34-0.9,13.29-7.46,16.51c-28.21,13.85-56.22,28.19-85.04,40.65C70.32,301.49,62.87,294.9,65.92,276.95z"/>
       <path d="M111.1,148.77c14.86-7.1,28.27-14.13,42.17-19.98c8.77-3.69,19.53-8.03,25.42,3.74c6.03,12.04-5.14,15.89-12.86,19.77
          c-26.38,13.27-53.03,26.03-79.64,38.84c-8.25,3.97-17.48,5.7-22.03-4.11c-4.91-10.59,2.54-16.57,11.62-20.85
          C87.23,160.78,98.5,154.97,111.1,148.77z"/>
       <path d="M179.72,294.81c-6.31,17.27-23.06,18.28-35.24,25.22c-18.36,10.46-38.19,18.32-57.28,27.54
          c-9.14,4.41-18.27,6.42-23.19-4.62c-4.46-9.99,2.7-15.63,11.01-19.65c26.19-12.67,52.15-25.85,78.66-37.8
          C163.5,281.08,175.39,277.03,179.72,294.81z"/>
       <path d="M124.46,224.75c-13.11,6.62-24.69,13.35-36.94,18.46c-7.69,3.21-17.59,5.74-22.77-3.76c-5.52-10.13,1.82-14.92,10.4-19.07
          c26.69-12.9,53.05-26.5,79.66-39.57c8.39-4.12,17.78-7.68,23.43,3.56c5.85,11.64-3.17,16.38-11.62,20.49
          C153.06,211.45,139.35,217.75,124.46,224.75z"/>
    </g>
</svg>
