<?xml version="1.0" encoding="utf-8"?>
<!-- Generator: Adobe Adobe Illustrator 24.2.0, SVG Export Plug-In . SVG Version: 6.00 Build 0)  -->
<svg version="1.1" id="Layer_2" xmlns="http://www.w3.org/2000/svg" xmlns:xlink="http://www.w3.org/1999/xlink" x="0px" y="0px"
	 width="500px" height="500px" viewBox="0 0 500 500" style="enable-background:new 0 0 500 500;" xml:space="preserve">
<g>
	<g fill="#FFFFFF">
		<path d="M65.46,227.07c-9.77-4.63-20.14-3.34-28.84-8.89c-5.37-3.43-6.88-6.69-5.16-12.51c4.1-13.86,9.66-27.29,10.56-42.06
			c0.34-5.58,4.55-9.07,10.97-7.7c10.36,2.21,21.03,3.1,30.6,8.38c10.63,5.86,22.98,5.97,34.32,9.69
			c8.66,2.84,13.27,7.32,12.06,16.55c-1.48,11.31,4.22,14.22,14.27,13.15c5.49-0.59,11.08-0.22,16.63-0.28
			c4.96-0.05,8.16-1.94,8.26-7.48c0.1-5.08-1.88-8.61-7.25-8.42c-16.71,0.62-12.2-11.72-12.51-20.64
			c-0.4-11.51,8.47-9.53,15.46-9.59c14.51-0.11,29.03,0.29,43.53-0.07c9.78-0.24,11.57,5.58,10.95,13.2
			c-0.56,6.84,3.64,16.75-9.24,16.92c-6.15,0.08-11.45,1.1-10.63,9.07c0.9,8.74,7.33,5.88,12.66,6.11
			c18.84,0.79,38.92-2.12,50.94,18.56c2.27,3.9,7.73,5.46,13.74,4.25c18.36-3.7,36.31-9.11,54.57-12.99
			c28.25-6,55.85-14.34,83.83-21.25c12.21-3.01,28.97,7.95,32.37,20.95c2.5,9.57-7.2,12.63-11.6,18.38
			c-2.97,3.88-7.11,3.19-11.27,0.13c-12.94-9.5-38.64-3.87-49.28,9.45c-22.23,27.82-44.98,55.23-67.63,82.71
			c-5.25,6.37-12.26,8.23-20.52,8.2c-52.07-0.19-104.13-0.01-156.2,0.06c-3.84,0-7.68-0.03-11.52,0.1
			c-21.42,0.69-21.26,0.7-21.13-20.55c0.12-19.64-0.55-39.3-0.08-58.93c0.23-9.72-2.86-15.05-12.78-17.03
			C78.95,233.21,72.76,229.89,65.46,227.07z M298.5,251.92c-22.33,9.27-43.67,14.33-59.11-11.85c-2.89-4.89-8.34-6.74-14.44-6.71
			c-27.74,0.17-55.49,0.24-83.23-0.07c-8.99-0.1-12.09,3.72-11.8,12.35c0.42,12.38,0.99,24.85-0.12,37.14
			c-1.23,13.61,4.41,16.45,16.91,16.16c34.55-0.8,69.24-1.95,103.68,0.22c25.11,1.58,45.09-2.31,57.95-25.96
			c4.83-8.88,15.42-13.88,18.48-24.83C317.19,247.75,308.89,249.67,298.5,251.92z M87.56,201.93c2.62,0.56,4.69,4.09,8.68,0.95
			c-6.93-7.77-16.84-5.5-25.18-7.72C76.03,197.24,81,199.31,87.56,201.93z"/>
		<path d="M465.84,304.52c-7.64,14.57-22.09,19.85-34.25,13.47c-13.22-6.93-17.24-21.83-10.56-35.69
			c5.57-11.56,12.55-21.94,22.21-33.01C455.48,266.29,471.7,279.95,465.84,304.52z"/>
	</g>
</g>
</svg>
