<?xml version="1.0" encoding="utf-8"?>
<!-- Generator: Adobe Adobe Illustrator 24.2.0, SVG Export Plug-In . SVG Version: 6.00 Build 0)  -->
<svg version="1.1" id="Layer_1" xmlns="http://www.w3.org/2000/svg" xmlns:xlink="http://www.w3.org/1999/xlink" x="0px" y="0px"
	 width="500px" height="500px" viewBox="0 0 500 500" style="enable-background:new 0 0 500 500;" xml:space="preserve">
<g>
	<g fill="#FFFFFF">
		<path d="M164.85,417.27c-4.41-26.28-8.32-50.84-7.97-78.21c-26.7,2.83-51.33,5.41-75.95,8.06c-6.44,0.69-15.1,4.65-17.21-4.44
			c-2.41-10.41,8.17-8.41,13.86-10.12c18.29-5.49,37.56-2.09,56.29-6.38c14.95-3.43,20.87-9.86,19.52-24.77
			c-0.85-9.4,0.36-18.97-0.21-28.42c-3.42-55.84,19.59-94.98,73.4-114.8c-37.81-28.82-45.47-65.17-20.6-93.68
			c20.84-23.88,61.58-23.91,83.13-0.06c24.47,27.09,16.66,64.44-19.74,93.21c12.74,9.21,23.39,6.7,33.98-4
			c19-19.2,38.79-37.61,57.84-56.76c6.88-6.92,14.55-12.75,22.48-4.73c7.95,8.05-0.61,15.05-6.06,20.51
			c-18.65,18.67-37.89,36.74-56.66,55.29c-6.28,6.21-13.22,12.82-4.11,22.25c21.34,22.12,24.93,49.96,25.23,78.83
			c0.01,1.35,0.02,2.71,0.02,4.06c0.14,52.93,2.09,54.83,56.76,56.63c8.09,0.27,16.34,0.25,24.18,1.95
			c5.96,1.3,14.34,2.82,9.52,15.42c-22.64-2.29-45.84-4.66-69.05-6.99c-24.96-2.52-25.35-2.5-24.96,23.54
			c0.37,25.16-0.72,49.99-8.48,74.22c-3.16,9.88-7.44,19.32-19.35,15.15c-12.08-4.23-5.92-13.34-3.37-21.93
			c8.16-27.46,8.7-55.83,7.64-84.23c-0.35-9.3-7.21-10.22-14.45-10.22c-33.87,0-67.74,0.23-101.6-0.15
			c-11.46-0.13-15.73,4.7-15.44,15.81c0.73,27.65-2.1,55.63,9.1,82.15c2.93,6.94,6.22,15.12-4.02,18.64
			c-9.1,3.13-16.27-1.4-19.09-10.3C167.08,435.17,166.39,426.99,164.85,417.27z"/>
	</g>
</g>
</svg>
