<svg version="1.1" id="Layer_1" xmlns="http://www.w3.org/2000/svg" xmlns:xlink="http://www.w3.org/1999/xlink" x="0px" y="0px"
	 width="100%" viewBox="0 0 1293 1211" enable-background="new 0 0 1293 1211" xml:space="preserve">

<path fill="#FFFFFF" opacity="1.000000" stroke="none" transform="rotate(180) translate(-1293, -1211)"
	d="
M1105.424805,446.575562 
	C1152.814575,493.965424 1199.954468,541.105164 1247.093994,588.245361 
	C1255.003784,596.155273 1255.001953,596.155518 1247.301758,603.855774 
	C1071.234253,779.922913 895.170898,955.994141 719.086426,1132.044189 
	C711.178833,1139.950195 703.078796,1147.663818 694.559753,1155.962524 
	C694.559753,1035.872314 694.559753,916.304260 694.559753,796.395386 
	C480.287170,796.395386 266.506775,796.395386 52.363216,796.395386 
	C52.363216,662.852051 52.363216,529.650085 52.363216,395.998840 
	C266.292084,395.998840 480.202759,395.998840 694.640198,395.998840 
	C694.640198,276.011292 694.640198,156.471634 694.640198,35.791069 
	C832.041687,173.192520 968.608215,309.759033 1105.424805,446.575562 
z"/>
</svg>